<?xml version="1.0" encoding="UTF-8"?>
<svg id="Layer_2" data-name="Layer 2" xmlns="http://www.w3.org/2000/svg" viewBox="0 0 533.25 65.2">
  <defs>
    <style>
      .cls-1 {
        fill: #fff;
      }
    </style>
  </defs>
  <g id="Layer_1-2" data-name="Layer 1">
    <path class="cls-1" d="M533.25.15v65.04l-3.45-1.26c1.05-20.46-1.38-42.23,0-62.53.17-2.44,2.13-.89,3.45-1.26Z"/>
    <rect class="cls-1" x="502.29" y=".08" width="6.88" height="65.04"/>
    <rect class="cls-1" x="473.05" y=".08" width="6.88" height="65.04"/>
    <rect class="cls-1" x="461.01" y=".08" width="6.88" height="65.04"/>
    <rect class="cls-1" x="43" y=".08" width="6.88" height="65.04"/>
    <rect class="cls-1" x="400.8" y=".08" width="6.88" height="65.04"/>
    <rect class="cls-1" x="347.48" y=".08" width="6.88" height="65.04"/>
    <rect class="cls-1" x="61.93" y=".08" width="6.88" height="65.04"/>
    <rect class="cls-1" x="275.23" y=".08" width="6.88" height="65.04"/>
    <rect class="cls-1" x="208.14" y=".08" width="6.88" height="65.04"/>
    <rect class="cls-1" x="84.29" y=".08" width="6.88" height="65.04"/>
    <rect class="cls-1" x="189.22" y=".08" width="6.88" height="65.04"/>
    <rect class="cls-1" x="98.05" y=".08" width="6.88" height="65.04"/>
    <rect class="cls-1" x="170.3" y=".08" width="6.88" height="65.04"/>
    <rect class="cls-1" x="519.49" y=".08" width="5.16" height="65.04"/>
    <rect class="cls-1" x="481.65" y=".08" width="5.16" height="65.04"/>
    <rect class="cls-1" x="428.32" y=".08" width="5.16" height="65.04"/>
    <rect class="cls-1" x="239.1" y=".08" width="5.16" height="65.04"/>
    <rect class="cls-1" x="113.53" y=".08" width="5.16" height="65.04"/>
    <rect class="cls-1" x="154.82" y=".08" width="5.16" height="65.04"/>
    <rect class="cls-1" x="135.89" y=".08" width="5.16" height="65.04"/>
    <rect class="cls-1" x="333.71" y=".08" width="3.44" height="65.04"/>
    <rect class="cls-1" x="127.29" y=".08" width="3.44" height="65.04"/>
    <rect class="cls-1" x="144.49" y=".08" width="3.44" height="65.04"/>
    <rect class="cls-1" y=".08" width="3.44" height="65.04"/>
    <rect class="cls-1" x="163.42" y=".08" width="3.44" height="65.04"/>
    <rect class="cls-1" x="510.89" y=".08" width="3.44" height="65.04"/>
    <rect class="cls-1" x="497.13" y=".08" width="3.44" height="65.04"/>
    <rect class="cls-1" x="491.97" y=".08" width="3.44" height="65.04"/>
    <rect class="cls-1" x="24.08" y=".08" width="3.44" height="65.04"/>
    <rect class="cls-1" x="447.25" y=".08" width="3.44" height="65.04"/>
    <rect class="cls-1" x="421.44" y=".08" width="3.44" height="65.04"/>
    <rect class="cls-1" x="381.88" y=".08" width="3.44" height="65.04"/>
    <rect class="cls-1" x="373.28" y=".08" width="3.44" height="65.04"/>
    <rect class="cls-1" x="311.35" y=".08" width="3.44" height="65.04"/>
    <rect class="cls-1" x="232.22" y=".08" width="3.44" height="65.04"/>
    <rect class="cls-1" x="287.27" y=".08" width="3.44" height="65.04"/>
    <rect class="cls-1" x="254.59" y=".08" width="3.44" height="65.04"/>
    <rect class="cls-1" x="251.15" y=".08" width="1.72" height="65.04"/>
    <rect class="cls-1" x="245.98" y=".08" width="1.72" height="65.04"/>
    <rect class="cls-1" x="264.91" y=".08" width="1.72" height="65.04"/>
    <rect class="cls-1" x="270.07" y=".08" width="1.72" height="65.04"/>
    <rect class="cls-1" x="70.53" y=".08" width="1.72" height="65.04"/>
    <rect class="cls-1" x="283.83" y=".08" width="1.72" height="65.04"/>
    <rect class="cls-1" x="75.69" y=".08" width="1.72" height="65.04"/>
    <rect class="cls-1" x="294.15" y=".08" width="1.72" height="65.04"/>
    <rect class="cls-1" x="302.75" y=".08" width="1.72" height="65.04"/>
    <rect class="cls-1" x="307.91" y=".08" width="1.72" height="65.04"/>
    <rect class="cls-1" x="227.06" y=".08" width="1.72" height="65.04"/>
    <rect class="cls-1" x="321.67" y=".08" width="1.72" height="65.04"/>
    <rect class="cls-1" x="330.27" y=".08" width="1.72" height="65.04"/>
    <rect class="cls-1" x="132.45" y=".08" width="1.72" height="65.04"/>
    <rect class="cls-1" x="340.59" y=".08" width="1.72" height="65.04"/>
    <rect class="cls-1" x="56.77" y=".08" width="1.72" height="65.04"/>
    <rect class="cls-1" x="356.08" y=".08" width="1.72" height="65.04"/>
    <rect class="cls-1" x="359.52" y=".08" width="1.72" height="65.04"/>
    <rect class="cls-1" x="368.12" y=".08" width="1.72" height="65.04"/>
    <rect class="cls-1" x="221.9" y=".08" width="1.72" height="65.04"/>
    <rect class="cls-1" x="378.44" y=".08" width="1.72" height="65.04"/>
    <rect class="cls-1" x="218.46" y=".08" width="1.72" height="65.04"/>
    <rect class="cls-1" x="388.76" y=".08" width="1.72" height="65.04"/>
    <rect class="cls-1" x="397.36" y=".08" width="1.72" height="65.04"/>
    <rect class="cls-1" x="51.61" y=".08" width="1.72" height="65.04"/>
    <rect class="cls-1" x="411.12" y=".08" width="1.72" height="65.04"/>
    <rect class="cls-1" x="416.28" y=".08" width="1.72" height="65.04"/>
    <rect class="cls-1" x="79.13" y=".08" width="1.72" height="65.04"/>
    <rect class="cls-1" x="37.84" y=".08" width="1.72" height="65.04"/>
    <rect class="cls-1" x="435.2" y=".08" width="1.72" height="65.04"/>
    <rect class="cls-1" x="443.8" y=".08" width="1.72" height="65.04"/>
    <rect class="cls-1" x="202.98" y=".08" width="1.72" height="65.04"/>
    <rect class="cls-1" x="454.13" y=".08" width="1.72" height="65.04"/>
    <rect class="cls-1" x="34.4" y=".08" width="1.72" height="65.04"/>
    <rect class="cls-1" x="469.61" y=".08" width="1.72" height="65.04"/>
    <rect class="cls-1" x="199.54" y=".08" width="1.72" height="65.04"/>
    <rect class="cls-1" x="18.92" y=".08" width="1.72" height="65.04"/>
    <rect class="cls-1" x="488.53" y=".08" width="1.72" height="65.04"/>
    <rect class="cls-1" x="94.61" y=".08" width="1.72" height="65.04"/>
    <rect class="cls-1" x="184.06" y=".08" width="1.72" height="65.04"/>
    <rect class="cls-1" x="10.32" y=".08" width="1.72" height="65.04"/>
    <rect class="cls-1" x="180.62" y=".08" width="1.72" height="65.04"/>
    <rect class="cls-1" x="5.16" y=".08" width="1.72" height="65.04"/>
    <rect class="cls-1" x="526.37" y=".08" width="1.72" height="65.04"/>
    <rect class="cls-1" x="108.37" y=".08" width="1.72" height="65.04"/>
    <rect class="cls-1" x="151.38" y=".08" width="1.72" height="65.04"/>
    <rect class="cls-1" x="122.13" y=".08" width="1.72" height="65.04"/>
  </g>
</svg>